<?xml version="1.0" standalone="no"?>
<!DOCTYPE svg PUBLIC "-//W3C//DTD SVG 20010904//EN"
 "http://www.w3.org/TR/2001/REC-SVG-20010904/DTD/svg10.dtd">
<svg version="1.0" xmlns="http://www.w3.org/2000/svg"
 width="1800.000000pt" height="1800.000000pt" viewBox="0 0 1800.000000 1800.000000"
 preserveAspectRatio="xMidYMid meet">

<g transform="translate(0.000000,1800.000000) scale(0.100000,-0.100000)"
fill="#000000" stroke="none">
<path d="M10125 17641 c-108 -67 -326 -428 -425 -703 -23 -62 -45 -122 -50
-134 -10 -26 -68 -220 -125 -419 -118 -415 -216 -689 -384 -1080 -185 -433
-241 -539 -327 -627 -56 -58 -203 -154 -524 -343 -304 -180 -329 -196 -960
-654 -124 -90 -256 -178 -295 -197 -97 -45 -197 -59 -655 -89 -212 -14 -403
-28 -425 -30 -144 -17 -288 -41 -400 -66 -173 -38 -416 -80 -727 -124 -139
-20 -316 -49 -393 -65 -257 -53 -529 -101 -665 -116 -74 -9 -168 -23 -209 -31
-68 -14 -78 -19 -132 -71 -103 -101 -110 -191 -34 -418 69 -207 204 -438 388
-667 315 -390 741 -840 978 -1034 213 -173 503 -321 802 -407 142 -41 381 -87
490 -93 76 -4 105 -9 115 -21 8 -11 12 -59 12 -158 l0 -142 -32 -11 c-18 -7
-67 -19 -108 -27 -208 -43 -676 -226 -833 -326 -47 -30 -83 -80 -72 -98 11
-19 49 -10 176 40 124 49 215 82 549 200 91 31 200 70 242 86 42 16 79 26 82
23 3 -3 17 -66 31 -140 14 -74 27 -144 30 -156 4 -19 -9 -32 -92 -87 -186
-122 -323 -258 -440 -433 -41 -60 -57 -94 -60 -128 -8 -62 11 -59 77 13 203
219 516 508 543 499 6 -2 32 -51 57 -108 121 -274 297 -493 500 -621 170 -108
456 -181 830 -214 214 -18 244 -24 248 -47 2 -10 -15 -82 -37 -160 -22 -78
-59 -216 -81 -307 -86 -348 -150 -501 -380 -910 -228 -405 -259 -468 -573
-1180 -255 -577 -298 -682 -384 -939 -87 -260 -134 -497 -149 -744 -4 -64 -10
-117 -14 -117 -24 0 -165 108 -225 171 -143 151 -231 398 -264 744 -26 270
-24 506 15 1389 19 421 13 641 -26 936 -48 364 -158 667 -341 940 -264 392
-637 657 -1060 752 -89 20 -131 23 -289 23 -207 -1 -258 -10 -383 -69 -98 -46
-177 -112 -246 -205 -107 -145 -161 -314 -161 -508 0 -209 47 -303 245 -489
68 -64 132 -122 143 -129 36 -26 161 -181 217 -271 200 -318 340 -817 480
-1716 128 -817 220 -1170 396 -1520 190 -377 483 -667 854 -844 241 -115 452
-164 705 -164 106 0 150 -4 157 -12 6 -7 31 -77 57 -156 141 -431 410 -944
647 -1238 66 -81 328 -337 436 -426 245 -200 582 -369 845 -422 43 -9 127 -16
188 -16 60 0 110 -4 110 -9 0 -4 34 -43 76 -84 221 -223 514 -212 704 25 l44
56 51 -39 c100 -76 299 -147 484 -174 78 -12 159 -16 266 -13 l154 3 114 59
113 58 100 -31 c351 -108 699 -120 964 -34 215 70 401 190 623 402 286 274
359 448 417 995 88 839 109 1435 65 1886 -30 315 -139 1023 -211 1375 -19 94
-40 195 -45 225 -18 99 -109 462 -150 600 -22 74 -98 313 -169 530 -168 516
-215 687 -330 1220 -129 600 -210 1106 -236 1473 l-7 99 90 91 c190 194 370
439 592 806 199 329 322 614 411 954 107 411 117 698 34 981 -22 73 -24 90
-13 97 41 26 526 171 730 218 145 34 183 51 162 72 -34 34 -272 12 -503 -46
-126 -31 -219 -65 -364 -129 -32 -14 -62 -26 -66 -26 -5 0 -34 48 -65 108 -51
96 -130 219 -246 385 -23 31 -39 63 -36 71 5 12 74 74 286 256 42 36 144 121
228 188 84 67 155 127 159 134 11 18 -52 2 -121 -31 -172 -81 -371 -219 -517
-360 -60 -57 -110 -102 -112 -100 -13 15 -124 194 -180 294 -38 66 -96 159
-129 208 -62 91 -93 167 -181 437 -33 100 -53 187 -76 335 -47 308 -66 407
-136 725 -193 880 -373 1308 -727 1730 -269 322 -697 739 -811 791 -52 23 -64
23 -101 0z m127 -173 c229 -180 609 -562 834 -838 203 -249 356 -551 482 -950
79 -249 189 -797 242 -1206 41 -319 53 -379 115 -549 105 -289 241 -571 370
-767 l97 -147 -70 -98 c-68 -97 -192 -289 -192 -299 0 -15 37 23 127 131 56
66 119 137 141 159 l40 38 57 -68 c108 -131 287 -437 270 -463 -3 -6 -22 -18
-42 -26 -99 -41 -475 -269 -553 -335 -14 -11 45 15 130 58 153 78 378 181 454
208 26 10 43 11 51 4 32 -27 85 -288 85 -422 0 -264 -107 -706 -255 -1048
-109 -255 -404 -741 -608 -1004 -211 -273 -401 -443 -636 -571 -97 -52 -104
-69 -25 -63 74 5 160 43 287 125 54 35 101 63 106 63 4 0 11 -82 14 -182 13
-372 106 -980 248 -1625 97 -441 143 -609 314 -1133 126 -386 174 -570 255
-974 147 -736 238 -1369 262 -1827 17 -328 -2 -717 -67 -1404 -53 -550 -84
-690 -192 -868 -47 -77 -102 -139 -227 -255 -264 -244 -471 -356 -738 -399
-191 -30 -699 -20 -766 16 -9 5 2 24 37 64 28 32 62 77 75 100 38 65 95 244
111 354 26 173 48 656 49 1083 1 378 0 407 -18 439 -17 32 -19 33 -32 17 -7
-10 -15 -46 -19 -79 -10 -111 -44 -716 -55 -997 -25 -636 -104 -835 -385 -974
-100 -49 -159 -60 -290 -52 -260 15 -523 95 -609 184 -52 56 -58 100 -67 527
-9 481 -27 646 -89 848 -26 85 -117 223 -135 205 -9 -8 24 -226 51 -338 38
-162 44 -231 49 -570 3 -173 10 -388 16 -477 11 -157 11 -163 -10 -196 -33
-53 -110 -120 -176 -153 -52 -25 -71 -29 -145 -29 -73 0 -92 4 -138 28 -96 50
-184 149 -339 382 -187 282 -276 441 -471 845 -163 340 -166 346 -170 327 -6
-28 27 -221 58 -342 29 -117 103 -283 206 -466 52 -93 257 -423 305 -491 45
-64 21 -71 -126 -33 -540 141 -1107 593 -1443 1152 -133 222 -249 461 -344
708 -141 368 -279 880 -309 1150 -22 196 15 509 93 778 66 230 134 404 353
902 53 121 135 306 181 412 155 358 262 574 412 838 261 459 360 697 437 1050
14 66 42 169 61 228 19 60 39 143 44 185 6 41 11 76 13 78 1 1 45 12 97 23
108 23 340 100 340 114 0 1 -143 3 -318 4 -365 3 -510 13 -747 53 -364 63
-497 121 -671 294 -143 144 -270 346 -329 525 l-18 55 32 27 c18 15 104 71
192 124 88 54 158 100 155 102 -7 7 -136 -42 -264 -101 -68 -31 -127 -54 -132
-51 -12 8 -49 154 -56 226 l-6 66 43 18 c24 9 107 40 184 67 77 27 156 56 175
64 34 13 34 14 5 9 -78 -12 -170 -28 -283 -51 -68 -13 -125 -24 -127 -24 -9 0
-16 46 -30 188 -8 86 -18 171 -21 187 -19 102 -45 122 -71 55 -19 -49 -21 -49
-192 -15 -465 94 -812 236 -1094 448 -245 184 -807 780 -1086 1152 -191 254
-323 535 -325 692 -1 63 2 74 24 97 31 34 98 52 240 66 154 14 193 21 575 96
182 35 447 80 590 100 231 31 527 84 730 129 161 36 246 45 840 85 386 27 500
45 608 98 45 22 132 79 192 125 223 173 859 627 878 627 5 0 348 205 527 314
265 163 304 220 557 806 184 428 266 663 437 1250 87 297 144 459 216 605 88
180 247 425 275 425 7 0 37 -19 67 -42z m-5860 -8577 c446 -102 878 -472 1103
-944 202 -422 254 -868 204 -1752 -27 -485 -32 -1065 -11 -1240 18 -141 57
-347 83 -432 45 -143 119 -280 204 -372 48 -53 171 -146 266 -202 61 -35 69
-43 75 -77 26 -153 75 -357 135 -571 16 -58 29 -110 29 -118 0 -18 -128 -17
-250 2 -498 80 -916 343 -1203 757 -163 236 -288 561 -386 1003 -19 86 -101
560 -136 790 -36 237 -108 610 -156 805 -157 650 -311 945 -648 1244 -151 134
-196 185 -235 266 -29 62 -31 71 -31 185 0 128 12 192 53 290 83 194 242 342
402 374 30 6 64 13 75 15 51 12 343 -4 427 -23z"/>
<path d="M10332 17078 c-39 -50 -133 -302 -177 -478 -125 -499 -199 -1025
-199 -1415 0 -266 21 -345 94 -345 35 0 81 50 146 162 25 43 52 78 59 78 13 0
26 -48 71 -260 25 -119 39 -131 145 -129 l81 2 76 -81 c85 -89 108 -102 186
-102 77 0 105 -13 229 -107 61 -46 113 -80 115 -74 7 20 -64 146 -108 191 -58
59 -109 83 -190 88 -91 5 -110 15 -171 89 -65 79 -94 95 -181 101 -38 3 -68 6
-68 8 0 2 -18 85 -40 185 -42 195 -60 239 -102 250 -46 12 -88 -18 -151 -111
-91 -134 -91 -133 -84 136 13 474 84 953 223 1503 41 162 74 301 74 308 0 16
-15 17 -28 1z"/>
<path d="M10666 13143 c-155 -47 -268 -191 -302 -385 -30 -171 16 -338 153
-553 88 -138 188 -215 313 -241 223 -46 425 102 485 357 22 93 19 255 -5 359
-60 248 -234 437 -435 470 -82 14 -151 11 -209 -7z"/>
<path d="M3865 12485 c-44 -9 -86 -17 -92 -20 -18 -6 -16 -42 1 -48 8 -3 81
-9 163 -12 240 -10 352 -23 648 -76 559 -100 708 -138 1020 -266 140 -57 365
-164 365 -173 0 -4 -48 -25 -107 -46 -157 -55 -196 -104 -137 -173 14 -17 52
-46 85 -66 55 -34 59 -39 59 -73 0 -23 12 -56 30 -87 24 -41 30 -61 30 -113 0
-83 27 -257 44 -291 15 -29 95 -106 102 -98 2 2 -1 57 -7 123 -6 65 -14 178
-19 249 -6 111 -11 137 -33 177 -19 36 -23 54 -18 80 11 47 -6 75 -61 105 -27
15 -47 31 -45 37 3 10 91 41 186 66 52 14 101 59 101 93 0 46 -39 77 -184 146
-460 221 -677 293 -1191 395 -362 72 -768 103 -940 71z"/>
<path d="M7551 11785 c-163 -46 -291 -181 -336 -353 -23 -90 -21 -237 5 -337
74 -290 139 -392 297 -467 161 -77 345 -53 478 62 138 118 193 271 182 500
-13 276 -124 481 -307 569 -67 32 -84 36 -170 38 -62 2 -114 -2 -149 -12z"/>
<path d="M9462 11354 c-76 -20 -154 -58 -196 -94 -73 -64 -37 -145 74 -169 71
-15 134 -14 178 4 42 18 116 86 138 127 15 29 19 96 6 114 -24 36 -107 43
-200 18z"/>
<path d="M11314 7078 c24 -211 127 -562 235 -801 29 -64 38 -97 26 -97 -2 0
-41 23 -85 51 -62 39 -86 50 -105 45 -33 -8 -33 -40 0 -137 68 -197 143 -585
128 -659 -5 -28 -8 -30 -35 -25 -35 8 -79 -8 -95 -34 -7 -11 -22 -57 -33 -103
-27 -106 -45 -144 -126 -279 -36 -61 -64 -113 -60 -116 9 -9 101 64 140 112
47 57 99 171 119 259 19 83 27 94 62 78 44 -20 74 -15 81 14 17 65 -22 373
-77 612 -17 73 -29 135 -27 137 2 2 32 -10 67 -27 109 -52 171 -48 171 10 0
14 -28 84 -61 156 -104 222 -165 389 -279 764 -35 117 -56 135 -46 40z"/>
</g>
</svg>
