<?xml version="1.0" encoding="UTF-8" standalone="no"?>
<!DOCTYPE svg PUBLIC "-//W3C//DTD SVG 1.1//EN" "http://www.w3.org/Graphics/SVG/1.1/DTD/svg11.dtd">
<svg width="100%" height="100%" viewBox="0 0 1920 1080" version="1.1" xmlns="http://www.w3.org/2000/svg" xmlns:xlink="http://www.w3.org/1999/xlink" xml:space="preserve" xmlns:serif="http://www.serif.com/" style="fill-rule:evenodd;clip-rule:evenodd;stroke-linecap:round;stroke-linejoin:round;stroke-miterlimit:1.5;">
    <path d="M591.355,788.576C550.602,763.83 508.076,739.834 461.805,727.294C359.573,699.587 255.697,707.119 153.511,729.341C98.544,741.294 43.524,756.144 -6.225,783.053" style="fill:none;stroke:black;stroke-width:7px;"/>
    <path d="M824.364,662.383C865.387,646.155 912.786,629.641 956.749,622.575C1039.05,609.347 1176.8,619.695 1252.74,656.877" style="fill:none;stroke:black;stroke-width:7px;"/>
    <path d="M1571.14,678.809C1628.26,692.072 1691.81,711.539 1745.1,735.503" style="fill:none;stroke:black;stroke-width:7px;"/>
    <path d="M1510.38,666.2C1524.05,668.694 1528.82,669.324 1542.31,672.236" style="fill:none;stroke:black;stroke-width:7px;"/>
    <path d="M1428.97,654.654C1438.82,655.611 1448.64,656.741 1458.45,658.025" style="fill:none;stroke:black;stroke-width:7px;"/>
    <path d="M1051.49,771.615C1064.2,758.333 1121.47,710.733 1147.56,697.838C1174.79,684.377 1202.74,671.074 1232.49,664.279C1286.48,651.95 1341.8,649.042 1396.91,652.173" style="fill:none;stroke:black;stroke-width:7px;"/>
    <path d="M452.513,834.262C508.041,815.324 564.059,794.981 621.513,782.901C677.297,771.171 732.731,762.282 789.584,759.202C828.39,757.101 868.092,755.767 907.026,757.298C1001.89,761.03 1115.29,785.438 1206.24,816.864" style="fill:none;stroke:black;stroke-width:7px;"/>
    <path d="M1614.41,774.319C1716.14,732.916 1827.82,706.522 1927.33,768.763" style="fill:none;stroke:black;stroke-width:7px;"/>
    <path d="M547.918,663.329C687.938,622.257 816.878,649.586 864.759,681.502" style="fill:none;stroke:black;stroke-width:7px;"/>
    <g transform="matrix(0.373134,0,0,0.373134,1301.33,600.833)">
        <path d="M370.541,643.269C365.875,591.739 394.249,392.526 399.698,341.417C406.693,275.812 415.426,210.521 423.472,145.037C427.775,110.019 448.533,83.777 485.723,79.59C496.863,78.336 509.388,78.245 519.415,84.087C554.545,104.555 561.041,158.944 563.444,194.943C566.403,239.283 560.945,283.584 557.863,327.75C554.031,382.663 528.076,611.582 523.025,666.385" style="fill:none;stroke:black;stroke-width:18.76px;"/>
        <path d="M412.619,247.316C367.443,241.152 333.006,209.857 329.665,162.999C328.545,147.288 329.491,131.543 329.808,115.821C330.277,92.517 331.831,76.173 299.733,75.12C280.428,74.486 265.608,95.805 262.786,112.949C257.507,145.026 264.96,200.552 276.211,230.946C292.139,273.971 360.744,282.354 401.938,285.536" style="fill:none;stroke:black;stroke-width:18.76px;"/>
        <g transform="matrix(0.996802,0.0799109,-0.0799109,0.996802,-28.3701,-64.0129)">
            <path d="M615.368,422.888C641.582,429.142 605.377,422.338 632.283,423.212C692.273,425.163 736.682,416.103 761.024,356.207C779.207,311.465 779.368,253.323 770.153,206.416C767.342,192.105 763.254,162.898 745.543,160.375C723.307,157.208 709.454,178.647 703.201,197.059C690.99,233.018 712.583,271.426 697.3,305.842C671.202,364.612 671.999,365.777 618.105,364.321" style="fill:none;stroke:black;stroke-width:18.76px;"/>
        </g>
    </g>
    <g transform="matrix(0.218774,-0.0511268,0.0511268,0.218774,520.778,524.661)">
        <path d="M370.541,643.269C365.875,591.739 394.249,392.526 399.698,341.417C406.693,275.812 415.426,210.521 423.472,145.037C427.775,110.019 448.533,83.777 485.723,79.59C496.863,78.336 509.388,78.245 519.415,84.087C554.545,104.555 561.041,158.944 563.444,194.943C566.403,239.283 560.945,283.584 557.863,327.75C554.031,382.663 528.076,611.582 523.025,666.385" style="fill:none;stroke:black;stroke-width:31.16px;"/>
        <path d="M412.619,247.316C367.443,241.152 333.006,209.857 329.665,162.999C328.545,147.288 329.491,131.543 329.808,115.821C330.277,92.517 331.831,76.173 299.733,75.12C280.428,74.486 265.608,95.805 262.786,112.949C257.507,145.026 264.96,200.552 276.211,230.946C292.139,273.971 360.744,282.354 401.938,285.536" style="fill:none;stroke:black;stroke-width:31.16px;"/>
        <g transform="matrix(0.996802,0.0799109,-0.0799109,0.996802,-28.3701,-64.0129)">
            <path d="M615.368,422.888C641.582,429.142 605.377,422.338 632.283,423.212C692.273,425.163 736.682,416.103 761.024,356.207C779.207,311.465 779.368,253.323 770.153,206.416C767.342,192.105 763.254,162.898 745.543,160.375C723.307,157.208 709.454,178.647 703.201,197.059C690.99,233.018 712.583,271.426 697.3,305.842C671.202,364.612 671.999,365.777 618.105,364.321" style="fill:none;stroke:black;stroke-width:31.16px;"/>
        </g>
    </g>
    <g transform="matrix(1,0,0,1,-37.1212,-21.1786)">
        <ellipse cx="1654.22" cy="241.871" rx="110.785" ry="113.554" style="fill:none;stroke:black;stroke-width:7px;"/>
    </g>
    <path d="M602.883,689.818C490.649,632.938 348.528,638.749 243.868,710.783" style="fill:none;stroke:black;stroke-width:7px;"/>
    <path d="M280.245,163.982C289.995,235.279 367.389,242.844 420.553,221.737" style="fill:none;stroke:black;stroke-width:7px;"/>
    <path d="M404.511,216.828C460.339,232.697 529.09,250.299 581.845,215.53" style="fill:none;stroke:black;stroke-width:7px;"/>
    <path d="M300.448,171.988C270.8,163.528 245.284,130.213 262.57,99.112C282.209,63.777 355.027,41.504 394.491,59.105" style="fill:none;stroke:black;stroke-width:7px;"/>
    <path d="M376.451,94.364C408.064,24.045 515.658,-34.578 562.248,49.056" style="fill:none;stroke:black;stroke-width:7px;"/>
    <path d="M527.676,86.956C547.301,60.335 578.799,33.292 613.923,34.523C668.322,36.428 700.468,87.798 668.718,136.471" style="fill:none;stroke:black;stroke-width:7px;"/>
    <path d="M635.864,120.865C666.575,131.147 718.088,173.097 689.566,208.936C657.676,249.008 609.549,240.584 564.528,225.245" style="fill:none;stroke:black;stroke-width:7px;"/>
</svg>
