<?xml version="1.0" encoding="UTF-8" standalone="no"?><!DOCTYPE svg PUBLIC "-//W3C//DTD SVG 1.1//EN" "http://www.w3.org/Graphics/SVG/1.1/DTD/svg11.dtd"><svg width="100%" height="100%" viewBox="0 0 2250 2250" version="1.1" xmlns="http://www.w3.org/2000/svg" xmlns:xlink="http://www.w3.org/1999/xlink" xml:space="preserve" xmlns:serif="http://www.serif.com/" style="fill-rule:evenodd;clip-rule:evenodd;stroke-linejoin:round;stroke-miterlimit:2;"><path d="M2061.31,1044.63c-0,0 -488.882,74.221 -724.113,109.933c-68.253,10.362 -115.184,74.092 -104.822,142.346c35.712,235.23 109.933,724.112 109.933,724.112l847.696,-128.694l-128.694,-847.697Z" style="fill:#5da9dd;"/><path d="M1099.96,1317.02c-10.362,-68.253 -74.092,-115.184 -142.346,-104.822c-235.23,35.712 -724.112,109.933 -724.112,109.933l128.694,847.696l847.697,-128.694c-0,-0 -74.221,-488.882 -109.933,-724.113Z" style="fill:#013e7b;"/><path d="M1912.51,64.526l-847.697,128.694c0,0 74.221,488.882 109.933,724.113c10.362,68.253 74.092,115.184 142.346,104.822c235.231,-35.712 724.112,-109.933 724.112,-109.933l-128.694,-847.696Z" style="fill:#6d6e71;"/><path d="M932.625,966.495l-762.101,115.7l-168.441,139.691c0,0 656.067,-99.602 935.441,-142.016c68.254,-10.362 115.184,-74.092 104.822,-142.346c-42.414,-279.374 -142.015,-935.441 -142.015,-935.441l-83.406,202.311l115.7,762.101Z" style="fill:#414042;"/></svg>