<?xml version="1.0" standalone="no"?>
<!DOCTYPE svg PUBLIC "-//W3C//DTD SVG 20010904//EN"
 "http://www.w3.org/TR/2001/REC-SVG-20010904/DTD/svg10.dtd">
<svg version="1.0" xmlns="http://www.w3.org/2000/svg"
 width="219.000000pt" height="189.000000pt" viewBox="0 0 219.000000 189.000000"
 preserveAspectRatio="xMidYMid meet">

<g transform="translate(0.000000,189.000000) scale(0.100000,-0.100000)"
fill="#aaa" stroke="none">
<path d="M995 1721 c-84 -24 -138 -64 -155 -116 -17 -53 10 -94 81 -122 44
-17 56 -27 63 -52 11 -39 24 -39 37 -1 l11 30 88 0 c115 0 179 14 221 49 28
24 34 35 34 69 0 90 -84 138 -252 147 -54 2 -111 1 -128 -4z m257 -28 c70 -20
108 -60 108 -110 0 -76 -82 -113 -251 -113 -79 0 -87 -2 -96 -22 l-11 -23 -10
27 c-8 19 -22 30 -50 38 -92 24 -119 87 -66 150 51 60 124 82 247 74 43 -3
101 -12 129 -21z"/>
<path d="M975 1652 c-4 -16 -1 -28 7 -33 7 -5 9 -9 3 -10 -5 -1 3 -4 20 -8 32
-7 46 -38 23 -52 -10 -7 -9 -9 5 -9 16 0 18 8 15 62 -3 61 -4 62 -35 69 -28 5
-32 3 -38 -19z m60 -18 c0 -26 -31 -30 -38 -5 -5 20 8 32 28 27 6 -2 10 -11
10 -22z"/>
<path d="M922 1621 c-22 -14 -10 -56 16 -59 21 -3 23 0 20 29 -3 35 -15 44
-36 30z m26 -28 c-4 -22 -22 -20 -26 1 -2 10 3 16 13 16 10 0 15 -7 13 -17z"/>
<path d="M980 1570 c0 -5 11 -10 25 -10 14 0 25 5 25 10 0 6 -11 10 -25 10
-14 0 -25 -4 -25 -10z"/>
<path d="M890 1263 c-55 -9 -127 -38 -179 -71 -36 -23 -82 -41 -137 -53 -98
-21 -144 -43 -144 -67 0 -10 16 -37 36 -61 36 -42 36 -42 29 -108 -4 -37 -11
-78 -16 -93 l-9 -25 19 24 c11 14 21 46 23 75 13 156 171 315 353 354 125 27
252 22 364 -14 67 -22 156 -75 156 -93 0 -8 22 -19 55 -28 57 -14 128 -51 149
-77 15 -18 3 -46 -43 -94 -26 -27 -28 -34 -16 -42 12 -7 15 -30 15 -97 -1
-102 -22 -154 -79 -198 -65 -50 -117 -57 -416 -62 -304 -5 -414 6 -498 49 -61
32 -96 94 -88 158 4 36 3 41 -5 26 -7 -11 -9 -41 -6 -73 6 -52 5 -55 -24 -71
-86 -49 -24 -97 186 -144 97 -22 906 -12 1047 13 62 11 150 40 278 93 72 30
85 39 88 60 2 17 -4 29 -17 38 -12 7 -21 17 -21 23 0 11 -61 55 -77 55 -6 0
-13 17 -17 38 -8 52 -47 131 -85 175 -56 63 -49 136 12 137 50 1 75 50 36 70
-50 27 -159 -38 -159 -95 0 -24 -1 -24 -67 -18 -38 3 -90 17 -118 30 -27 12
-57 23 -65 23 -8 0 -31 14 -50 30 -44 39 -139 85 -215 105 -55 14 -230 19
-295 8z m980 -103 c0 -13 -24 -27 -58 -35 -35 -7 -52 -30 -52 -69 0 -24 -2
-25 -25 -14 -22 10 -25 16 -19 42 9 44 31 64 83 80 45 13 71 12 71 -4z m-1290
-66 c-17 -20 -39 -52 -48 -70 -8 -19 -19 -34 -23 -34 -4 0 -21 19 -38 42 l-31
42 27 15 c28 15 107 39 132 40 7 1 -1 -15 -19 -35z m1116 -59 c101 -42 158
-126 188 -276 5 -20 12 -26 32 -26 14 0 31 -6 37 -12 20 -20 -6 -45 -74 -68
-80 -27 -79 -27 -79 -3 0 35 -46 55 -127 54 -42 -1 -79 -6 -85 -12 -9 -9 8
-12 71 -12 85 0 121 -10 121 -35 0 -23 -34 -35 -128 -45 -48 -6 -101 -12 -119
-14 l-32 -5 24 37 c35 55 48 121 42 217 -4 65 -1 87 9 96 8 6 23 27 35 46 20
33 20 35 4 53 -18 19 -17 20 14 20 17 0 48 -7 67 -15z m-203 -482 c-7 -2 -19
-2 -25 0 -7 3 -2 5 12 5 14 0 19 -2 13 -5z m-646 -49 c-3 -3 -12 -4 -19 -1 -8
3 -5 6 6 6 11 1 17 -2 13 -5z"/>
<path d="M780 865 c0 -8 -4 -15 -10 -15 -5 0 -10 -5 -10 -10 0 -7 6 -7 20 0
21 11 28 40 10 40 -5 0 -10 -7 -10 -15z"/>
<path d="M1002 835 c2 -13 12 -21 28 -22 14 -1 18 0 10 3 -8 4 -21 14 -28 23
-13 14 -13 14 -10 -4z"/>
<path d="M686 791 c-23 -25 -13 -59 20 -67 30 -8 54 11 54 40 0 45 -44 61 -74
27z"/>
<path d="M1060 781 c-20 -39 22 -82 60 -61 22 12 27 49 8 68 -18 18 -56 14
-68 -7z"/>
<path d="M830 729 c0 -5 19 -8 43 -8 23 0 51 -1 61 -3 10 -2 20 2 23 7 2 7
-22 11 -62 11 -36 0 -65 -3 -65 -7z"/>
</g>
</svg>
